<?xml version="1.0" encoding="utf-8"?>
<!-- Generator: Adobe Illustrator 21.0.0, SVG Export Plug-In . SVG Version: 6.00 Build 0)  -->
<svg version="1.1" id="Layer_1" xmlns="http://www.w3.org/2000/svg" xmlns:xlink="http://www.w3.org/1999/xlink" x="0px" y="0px"
	 viewBox="0 0 413 39.3" style="enable-background:new 0 0 413 39.3;" xml:space="preserve">
<style type="text/css">
	.st0{fill:#231F20;}
	.st1{fill:#005B96;}
	.st2{fill:#0089CD;}
</style>
<g>
	<path class="st0" d="M315,8.8h-20.2l-1.5,4.6c0,0,8,0,9.1,0c0,1.2,0,16.5,0,16.5h4.6c0,0,0-15.3,0-16.5c1.1,0,7.4,0,7.4,0l1.5-4.6
		H315z M143.9,8.8h-20.2l-1.5,4.6c0,0,8,0,9.1,0c0,1.2,0,16.5,0,16.5h4.6c0,0,0-15.3,0-16.5c1.1,0,7.4,0,7.4,0l1.5-4.6H143.9z
		 M117.4,9h-3.9v21.7h4.6V9H117.4z M375.4,9c-3.3,0-6.3,1.6-8.2,4.1c-2-2.5-5-4.1-8.3-4.1c-5.8,0-10.5,4.7-10.5,10.5v11h4.6v-11
		c0-3.3,2.7-6,6-6c3.2,0,5.9,2.6,6,5.9l0,11.1h4.6v-11c0.1-3.4,2.7-6,6-6c3.3,0,6,2.7,6,6v11h4.6v-11C385.9,13.8,381.2,9,375.4,9
		L375.4,9z M263.2,9h-3.9v2.5c0,3.3-2.7,6-6,6c-3.3,0-6-2.7-6-6V9h-4.6v2.5c0,5.1,3.7,9.4,8.7,10.3c0,0.8,0,8.6,0,8.6h4.6
		c0,0,0-8,0-8.8c4.5-1.2,7.8-5.4,7.8-10.1V9H263.2z M169,9h-3.9v2.5c0,3.3-2.7,6-6,6c-3.3,0-6-2.7-6-6V9h-4.6v2.5
		c0,5.1,3.7,9.4,8.7,10.3c0,0.8,0,8.6,0,8.6h4.6c0,0,0-8,0-8.8c4.5-1.2,7.8-5.4,7.8-10.1V9H169z M108,9h-3.9v11c0,3.3-2.7,6-6,6
		c-3.3,0-6-2.7-6-6V9h-4.6v11c0,5.8,4.7,10.5,10.5,10.5c5.8,0,10.5-4.7,10.5-10.5V9H108z M63,19.6v11h4.6v-11c0-3.3,2.7-6,6-6
		c3.3,0,6,2.7,6,6v11h4.6v-11C84.1,13.8,79.4,9,73.6,9C67.7,9,63,13.8,63,19.6z M410,9.2h-14.5c-3.6,0-6.5,2.9-6.5,6.5
		c0,3.6,2.9,6.5,6.5,6.5h9.4c1.1,0,1.9,0.8,1.9,1.9c0,1-0.9,1.9-1.9,1.9h-14.2l-1.4,4.3l1,0.2l14.6,0c3.6,0,6.5-2.9,6.5-6.5
		c0-3.6-2.9-6.5-6.5-6.5h-9.4c-1.1,0-1.9-0.8-1.9-1.9c0-1.1,0.9-1.9,1.9-1.9h13.9l1.5-4.6H410z M288.5,9.2h-14.5
		c-3.6,0-6.5,2.9-6.5,6.5c0,3.6,2.9,6.5,6.5,6.5h9.4c1,0,1.9,0.8,1.9,1.9c0,1-0.9,1.9-1.9,1.9h-14.2l-1.5,4.6l15.6,0
		c3.6,0,6.5-2.9,6.5-6.5c0-3.6-2.9-6.5-6.5-6.5h-9.4c-1.1,0-1.9-0.8-1.9-1.9c0-1.1,0.9-1.9,1.9-1.9h13.8l1.5-4.6H288.5z M237.3,9.2
		h-14.5c-3.6,0-6.5,2.9-6.5,6.5c0,3.6,2.9,6.5,6.5,6.5h9.4c1,0,1.9,0.8,1.9,1.9c0,1-0.9,1.9-1.9,1.9H218l-1.5,4.6l15.7,0
		c3.6,0,6.5-2.9,6.5-6.5c0-3.6-2.9-6.5-6.5-6.5h-9.4c-1,0-1.9-0.8-1.9-1.9c0-1.1,0.8-1.9,1.9-1.9h13.9l1.5-4.6H237.3z M341.9,9.3
		h-12.3c-5.8,0-10.5,4.7-10.5,10.5c0,5.8,4.7,10.6,10.5,10.6h13l1.5-4.6h-14.5c-2.4,0-4.5-1.5-5.4-3.7c1.8,0,17.7,0,17.7,0l1.5-4.6
		c0,0-17.4,0-19.2,0c0.9-2.2,3-3.7,5.4-3.7h11.7l1.5-4.6H341.9z M57.5,9.3H45.2c-5.8,0-10.5,4.7-10.5,10.5c0,5.8,4.7,10.6,10.5,10.6
		h13l1.5-4.6H45.2c-2.4,0-4.5-1.5-5.4-3.7c1.8,0,17.7,0,17.7,0l1.5-4.6c0,0-17.4,0-19.2,0c0.9-2.2,3-3.7,5.4-3.7h11.7l1.5-4.6H57.5z
		 M12.8,9.3C7,9.3,2.2,14,2.2,19.8c0,5.8,4.7,10.6,10.5,10.6h7.8c5.8,0,10.5-4.7,10.5-10.6v-2.3H17.3v4.6c0,0,7,0,8.6,0
		c-0.9,2.2-3,3.7-5.4,3.7h-7.8c-3.3,0-6-2.7-6-6c0-3.3,2.7-6,6-6h7.8c2,0,3.9,1,5,2.7l3.8-2.5c-2-3-5.3-4.8-8.9-4.8H12.8z"/>
	<g>
		<g>
			<path class="st1" d="M186.9,25.6c0,0,12.3-12.3,13.9-13.9c0.7,0.7,3.2,3.2,3.2,3.2l2.1-14.1L192,2.9c0,0,2.5,2.5,3.2,3.2
				c-1.5,1.5-9.5,9.5-9.5,9.5S181.5,20.2,186.9,25.6z"/>
			<path class="st2" d="M198.5,14c0,0-12.3,12.3-13.9,13.9c-0.7-0.7-3.2-3.2-3.2-3.2l-2.1,14.1l14.1-2.1c0,0-2.5-2.5-3.2-3.2
				c1.5-1.5,9.5-9.5,9.5-9.5S203.9,19.4,198.5,14z"/>
		</g>
	</g>
</g>
</svg>
